<?xml version="1.0" standalone="no"?>
<!DOCTYPE svg PUBLIC "-//W3C//DTD SVG 20010904//EN"
 "http://www.w3.org/TR/2001/REC-SVG-20010904/DTD/svg10.dtd">
<svg version="1.0" xmlns="http://www.w3.org/2000/svg"
 width="5760.000000pt" height="3456.000000pt" viewBox="0 0 5760.000000 3456.000000"
 preserveAspectRatio="xMidYMid meet">

<g transform="translate(0.000000,3456.000000) scale(0.100000,-0.100000)"
fill="#000000" stroke="none">
<path d="M47845 23507 c-28 -16 -147 -27 -364 -33 -162 -5 -188 -8 -212 -25
-23 -16 -44 -19 -136 -19 -101 0 -112 -2 -143 -25 -30 -22 -44 -25 -121 -25
-81 0 -88 -2 -103 -25 -15 -23 -22 -25 -93 -25 -68 0 -78 -3 -99 -25 -19 -21
-32 -25 -77 -25 -39 0 -61 -6 -80 -20 -15 -12 -40 -20 -64 -20 -24 0 -52 -9
-75 -25 -22 -15 -51 -25 -73 -25 -25 0 -41 -7 -57 -25 -13 -15 -32 -25 -49
-25 -15 0 -49 -11 -75 -25 -26 -14 -58 -25 -72 -25 -14 0 -32 -10 -44 -25 -14
-18 -29 -25 -55 -25 -20 0 -46 -9 -60 -20 -14 -11 -33 -20 -43 -20 -10 0 -29
-9 -44 -21 -15 -12 -46 -23 -69 -27 -26 -3 -50 -14 -64 -29 -12 -13 -34 -23
-49 -23 -16 0 -34 -10 -46 -25 -12 -15 -30 -25 -45 -25 -15 0 -33 -7 -42 -15
-28 -27 -87 -62 -125 -75 -20 -6 -36 -15 -36 -20 0 -4 -18 -15 -40 -24 -22 -9
-40 -21 -40 -26 0 -6 -15 -18 -32 -26 -68 -32 -100 -53 -115 -73 -8 -13 -25
-21 -42 -21 -20 0 -41 -14 -77 -50 -31 -32 -58 -50 -73 -50 -16 0 -44 -21 -87
-65 -34 -36 -79 -72 -98 -80 -20 -9 -36 -20 -36 -25 0 -6 -8 -10 -17 -10 -9 0
-47 -32 -85 -71 -63 -65 -93 -89 -154 -117 -29 -14 -514 -501 -514 -516 0 -7
-9 -23 -20 -36 -11 -13 -20 -27 -20 -31 0 -5 -45 -54 -100 -109 -75 -75 -100
-107 -100 -126 0 -18 -14 -40 -46 -69 -46 -43 -74 -85 -95 -137 -6 -16 -17
-28 -24 -28 -7 0 -18 -13 -25 -30 -7 -16 -18 -35 -26 -41 -8 -6 -14 -20 -14
-29 0 -10 -10 -27 -23 -37 -23 -18 -40 -44 -72 -110 -8 -18 -24 -37 -35 -43
-14 -7 -20 -21 -20 -44 0 -25 -7 -38 -25 -50 -14 -9 -25 -25 -25 -36 0 -10 -5
-22 -10 -25 -6 -4 -29 -46 -52 -93 -23 -48 -49 -98 -60 -111 -10 -13 -18 -31
-18 -40 0 -10 -11 -32 -25 -51 -14 -19 -25 -42 -25 -51 0 -10 -11 -35 -25 -55
-14 -20 -25 -44 -25 -54 0 -9 -9 -25 -20 -35 -13 -12 -20 -31 -20 -56 0 -30
-6 -42 -25 -55 -19 -12 -25 -25 -25 -53 0 -24 -9 -49 -25 -71 -15 -20 -25 -47
-25 -67 0 -22 -7 -37 -20 -45 -16 -10 -20 -24 -20 -66 0 -44 -4 -57 -25 -76
-20 -19 -25 -33 -25 -73 0 -39 -5 -54 -24 -72 -19 -18 -25 -35 -28 -86 -3 -44
-10 -70 -23 -85 -13 -14 -20 -42 -24 -93 -4 -41 -13 -84 -23 -98 -11 -17 -17
-54 -19 -116 -3 -74 -8 -95 -24 -113 -17 -19 -21 -40 -25 -144 -4 -103 -8
-125 -27 -151 -20 -29 -22 -45 -29 -325 -4 -162 -7 -353 -7 -425 -1 -237 15
-680 25 -698 22 -43 38 -135 38 -223 0 -83 3 -99 23 -125 18 -25 23 -47 26
-117 3 -71 7 -89 22 -100 16 -11 19 -26 19 -91 0 -65 4 -83 21 -105 13 -17 24
-50 28 -85 4 -36 15 -68 29 -86 17 -21 22 -41 22 -82 0 -47 4 -58 25 -75 19
-15 25 -29 25 -60 0 -25 8 -49 20 -65 11 -14 20 -40 20 -57 0 -19 11 -47 25
-66 17 -23 25 -47 25 -73 0 -30 6 -44 25 -59 16 -12 25 -30 25 -47 0 -17 10
-36 25 -49 16 -14 25 -32 25 -52 0 -19 7 -33 20 -40 14 -7 20 -21 20 -44 0
-25 7 -38 25 -50 18 -12 25 -25 25 -50 0 -25 7 -38 25 -50 17 -11 25 -26 25
-44 0 -18 9 -37 25 -50 16 -14 25 -32 25 -52 0 -19 7 -33 20 -40 14 -8 20 -21
20 -45 0 -24 6 -37 20 -45 11 -6 29 -28 40 -48 10 -20 25 -48 32 -62 7 -14 23
-33 35 -43 14 -11 23 -29 23 -47 0 -17 8 -34 20 -43 10 -7 24 -24 30 -38 27
-59 51 -93 94 -136 30 -30 46 -54 46 -70 0 -17 16 -41 50 -74 28 -27 50 -55
50 -63 0 -8 6 -16 14 -19 7 -3 16 -17 20 -31 3 -14 60 -79 126 -144 66 -66
120 -124 120 -130 0 -14 459 -472 472 -472 5 0 43 -34 83 -75 41 -41 84 -80
97 -86 59 -27 92 -51 133 -93 23 -25 50 -46 57 -46 8 0 23 -9 33 -20 10 -11
24 -20 32 -20 7 0 35 -22 62 -50 37 -38 56 -50 79 -50 20 0 35 -7 45 -23 8
-12 40 -35 71 -51 31 -16 62 -36 69 -45 7 -10 27 -23 45 -30 17 -7 32 -17 32
-21 0 -5 13 -13 29 -18 16 -6 34 -20 41 -31 8 -15 21 -21 45 -21 24 0 37 -6
45 -20 7 -13 21 -20 40 -20 20 0 38 -9 52 -25 13 -15 32 -25 49 -25 17 0 35
-9 47 -25 14 -17 30 -25 51 -25 22 0 35 -7 47 -25 12 -18 25 -25 50 -25 23 0
37 -6 44 -20 7 -13 21 -20 41 -20 19 0 38 -9 53 -25 13 -14 34 -25 48 -25 13
0 35 -11 48 -25 19 -21 33 -25 77 -25 45 0 55 -4 69 -25 12 -19 25 -25 53 -25
24 0 49 -9 71 -25 22 -16 47 -25 71 -25 20 0 47 -8 60 -18 13 -11 48 -22 77
-25 30 -4 64 -15 79 -27 19 -15 40 -20 85 -20 47 0 67 -5 96 -25 30 -20 49
-25 100 -25 51 0 70 -5 100 -25 32 -22 48 -25 119 -25 59 0 98 -6 135 -20 40
-15 78 -20 153 -20 98 -1 168 -13 212 -38 34 -19 1175 -17 1211 2 47 24 119
36 215 36 68 0 106 5 145 20 38 14 76 20 140 20 78 0 92 3 122 25 28 21 45 25
100 25 55 0 72 4 100 25 28 20 45 25 96 25 42 0 67 5 78 15 20 21 61 35 100
35 18 0 45 9 59 20 14 11 40 20 59 20 18 0 51 11 73 25 22 13 52 25 67 25 36
0 58 10 58 25 0 18 23 25 77 25 36 0 51 5 69 25 13 15 34 25 50 25 16 0 34 10
46 25 13 17 29 25 51 25 21 0 36 7 45 20 7 12 23 20 40 20 18 0 37 9 50 25 14
16 32 25 52 25 20 0 35 8 46 25 11 17 25 25 46 25 20 0 37 8 50 25 13 17 29
25 51 25 21 0 36 7 45 20 8 13 23 20 42 20 16 0 34 8 42 18 14 20 65 53 116
76 17 8 32 20 32 26 0 6 16 18 36 26 21 9 43 22 51 30 8 8 20 14 28 14 7 0 20
11 29 25 12 18 26 25 49 25 25 0 40 10 72 46 22 25 53 52 70 60 62 30 86 46
98 65 6 10 16 19 22 19 6 0 16 9 23 21 7 11 27 27 45 35 59 28 73 39 167 132
51 51 105 99 119 107 31 16 421 408 421 424 0 6 53 63 118 127 107 108 145
154 171 210 11 24 69 84 81 84 10 0 20 26 20 53 0 13 20 42 50 70 28 27 50 56
50 65 0 10 9 25 20 35 11 9 20 23 20 32 0 8 11 22 25 31 18 12 25 25 25 50 0
23 6 37 20 44 11 6 27 25 35 43 31 65 49 92 67 105 10 8 18 25 18 42 0 20 8
35 25 46 18 12 25 25 25 50 0 25 7 38 25 50 18 12 25 25 25 50 0 23 6 37 20
44 13 7 20 21 20 39 0 16 10 37 25 51 15 14 25 35 25 52 0 18 8 33 25 44 18
12 25 25 25 50 0 25 7 38 25 50 18 12 25 25 25 50 0 22 6 37 19 43 12 7 20 26
25 61 4 32 14 57 26 68 14 11 20 29 20 57 0 28 8 52 25 75 16 22 25 47 25 71
0 28 6 41 25 53 22 14 25 24 25 75 0 41 5 65 18 82 11 13 22 48 25 77 4 30 15
64 27 79 15 20 20 40 20 87 0 51 5 68 25 96 22 30 25 44 25 121 0 74 3 90 23
115 20 25 23 43 28 164 3 90 10 143 20 160 10 18 16 86 22 250 15 390 7 1133
-12 1175 -22 48 -25 67 -30 193 -4 79 -10 136 -17 140 -24 15 -34 54 -34 132
0 70 -3 86 -25 118 -20 29 -25 49 -25 95 0 45 -5 66 -22 90 -16 22 -24 50 -26
94 -3 49 -9 66 -23 74 -15 8 -19 21 -19 64 0 45 -4 57 -25 73 -21 17 -25 28
-25 76 0 48 -3 58 -25 72 -19 12 -25 25 -25 53 0 20 -11 53 -25 76 -14 22 -25
51 -25 65 0 14 -9 33 -20 43 -11 9 -20 29 -20 45 0 15 -11 44 -25 64 -14 20
-25 45 -25 56 0 10 -11 33 -25 52 -14 19 -25 41 -25 51 0 9 -9 27 -19 41 -11
13 -23 36 -26 51 -4 14 -13 31 -20 37 -8 7 -19 28 -26 48 -7 20 -20 48 -30 61
-11 13 -19 31 -19 41 0 9 -9 25 -19 34 -11 10 -22 29 -26 43 -3 14 -17 35 -31
45 -15 13 -24 30 -24 48 0 16 -8 35 -18 42 -9 7 -23 24 -30 38 -26 53 -53 95
-67 106 -8 6 -22 27 -30 48 -8 20 -20 36 -25 36 -6 0 -10 9 -10 19 0 11 -13
29 -30 41 -16 12 -30 30 -30 39 0 10 -7 24 -15 31 -8 6 -17 21 -21 33 -4 12
-29 42 -55 67 -32 30 -49 54 -49 71 -1 20 -50 89 -65 89 -2 0 -30 27 -61 59
-54 57 -68 75 -96 131 -14 27 -461 480 -473 480 -12 0 -113 80 -173 138 -30
28 -58 52 -61 52 -3 0 -12 9 -19 20 -7 12 -23 25 -35 31 -59 28 -91 51 -151
112 -47 47 -74 67 -92 67 -17 0 -41 16 -74 50 -37 37 -57 50 -78 50 -21 0 -35
8 -46 25 -9 14 -22 25 -30 25 -7 0 -21 9 -31 20 -10 11 -26 20 -35 20 -9 0
-27 11 -40 25 -13 14 -29 25 -36 25 -7 0 -26 11 -42 25 -17 14 -35 25 -41 25
-19 0 -119 60 -125 75 -3 9 -18 15 -36 15 -20 0 -39 9 -54 25 -14 15 -34 25
-50 25 -15 0 -35 10 -48 25 -15 17 -32 25 -53 25 -18 0 -43 9 -57 19 -13 11
-38 23 -54 27 -16 4 -41 15 -56 25 -14 11 -40 19 -58 19 -20 0 -39 8 -53 23
-12 13 -39 27 -60 30 -20 3 -49 15 -64 26 -16 13 -40 21 -64 21 -30 0 -42 6
-55 25 -12 19 -25 25 -53 25 -24 0 -49 9 -71 25 -23 17 -47 25 -76 25 -26 0
-51 7 -67 20 -18 15 -40 20 -81 20 -47 0 -60 4 -78 25 -19 22 -29 25 -95 25
-66 0 -76 3 -97 25 -21 23 -31 25 -103 25 -68 0 -85 3 -109 23 -25 19 -42 22
-149 25 -95 3 -124 7 -139 20 -15 14 -52 18 -210 24 -241 9 -352 20 -368 36
-17 17 -424 17 -453 -1z m151 -1572 c23 -12 76 -15 275 -15 201 0 255 -3 295
-16 27 -9 93 -20 146 -23 78 -5 103 -11 127 -29 25 -18 43 -22 111 -22 73 0
82 -2 102 -25 18 -21 30 -25 78 -25 43 0 64 -5 84 -21 15 -12 48 -24 74 -27
26 -3 63 -16 82 -28 19 -13 49 -24 67 -24 20 0 37 -7 45 -18 8 -11 31 -21 55
-24 23 -3 54 -15 69 -27 15 -12 34 -21 43 -21 10 0 32 -11 51 -25 20 -15 47
-25 67 -25 24 0 37 -7 49 -25 9 -14 24 -25 34 -25 9 0 28 -8 41 -18 13 -9 55
-32 92 -51 37 -19 72 -42 78 -53 6 -12 21 -18 44 -18 24 0 38 -6 45 -19 5 -11
22 -26 37 -34 76 -39 91 -50 129 -92 30 -32 49 -45 69 -45 20 0 41 -14 76 -50
26 -27 54 -50 62 -50 8 0 22 -9 32 -20 10 -11 24 -20 31 -20 15 0 574 -556
574 -571 0 -5 9 -19 20 -31 11 -12 20 -28 20 -35 0 -7 30 -44 67 -81 38 -37
75 -79 83 -94 8 -14 24 -41 34 -60 10 -18 27 -39 37 -46 11 -7 19 -25 19 -40
0 -19 14 -41 50 -75 38 -37 50 -56 50 -78 0 -17 6 -32 15 -36 9 -3 22 -20 31
-37 13 -28 31 -62 56 -106 4 -8 16 -31 26 -50 9 -19 27 -43 40 -53 15 -13 22
-29 22 -54 0 -20 9 -46 20 -60 11 -14 20 -33 20 -43 0 -10 10 -29 21 -44 12
-15 24 -47 27 -71 3 -32 11 -49 28 -60 20 -13 24 -24 24 -67 0 -41 5 -55 25
-74 21 -19 25 -32 25 -76 0 -42 4 -56 20 -66 16 -10 20 -23 20 -70 0 -46 5
-65 25 -92 22 -30 25 -44 25 -121 0 -60 4 -92 13 -101 29 -29 37 -60 37 -146
0 -64 4 -93 14 -101 8 -6 17 -28 21 -49 4 -20 10 -262 12 -537 4 -509 1 -578
-34 -630 -8 -12 -13 -52 -13 -110 0 -81 -3 -95 -25 -125 -21 -28 -25 -45 -25
-100 0 -55 -4 -72 -25 -100 -20 -28 -25 -45 -25 -96 0 -44 -5 -68 -19 -85 -10
-13 -20 -45 -23 -71 -3 -26 -15 -59 -27 -74 -13 -16 -21 -41 -21 -63 0 -24 -9
-49 -25 -71 -16 -22 -25 -47 -25 -72 0 -29 -6 -41 -25 -54 -18 -12 -25 -25
-25 -50 0 -23 -6 -37 -20 -44 -13 -7 -20 -21 -20 -40 0 -20 -9 -38 -25 -52
-15 -13 -25 -32 -25 -49 0 -17 -9 -35 -25 -47 -17 -14 -25 -30 -25 -51 0 -22
-7 -35 -25 -47 -17 -11 -25 -25 -25 -46 0 -23 -11 -41 -45 -72 -31 -30 -45
-51 -45 -69 0 -14 -9 -34 -19 -44 -25 -23 -71 -91 -71 -104 0 -5 -25 -35 -55
-65 -30 -31 -55 -64 -55 -74 0 -9 -9 -25 -20 -35 -11 -10 -20 -23 -20 -29 0
-5 -22 -30 -49 -56 -26 -25 -51 -54 -55 -65 -3 -11 -24 -40 -46 -63 -22 -24
-40 -48 -40 -53 0 -11 -268 -279 -279 -279 -4 0 -31 -20 -60 -45 -29 -25 -57
-45 -63 -45 -5 0 -42 -33 -81 -73 -40 -40 -94 -84 -121 -97 -27 -14 -69 -45
-93 -69 -40 -40 -74 -64 -130 -90 -12 -5 -27 -19 -33 -31 -7 -14 -21 -20 -45
-20 -23 0 -39 -7 -48 -21 -15 -20 -50 -43 -117 -74 -19 -10 -42 -23 -50 -30
-8 -7 -29 -16 -46 -19 -18 -4 -40 -16 -50 -27 -9 -10 -27 -19 -39 -19 -12 0
-34 -9 -48 -20 -14 -12 -41 -26 -59 -32 -18 -6 -44 -19 -57 -30 -13 -10 -39
-18 -58 -18 -26 0 -41 -7 -55 -25 -14 -18 -29 -25 -53 -25 -20 0 -50 -11 -71
-25 -21 -15 -51 -25 -71 -25 -18 0 -45 -8 -59 -17 -14 -9 -51 -20 -82 -24 -36
-5 -61 -14 -69 -26 -10 -13 -31 -18 -86 -21 -56 -3 -77 -9 -95 -26 -20 -17
-38 -22 -115 -25 -82 -3 -93 -6 -110 -27 -18 -23 -23 -24 -151 -24 -109 0
-136 -3 -156 -17 -23 -16 -61 -18 -441 -18 -376 0 -419 2 -435 17 -15 13 -45
17 -156 20 -123 3 -139 5 -167 26 -26 19 -43 22 -113 22 -72 0 -88 3 -120 25
-29 20 -49 25 -97 25 -54 0 -62 3 -77 25 -14 22 -24 25 -74 25 -42 0 -64 5
-83 20 -16 12 -40 20 -65 20 -31 0 -45 6 -59 24 -13 16 -34 25 -68 30 -28 5
-58 16 -68 27 -11 12 -31 19 -56 19 -22 0 -49 8 -62 18 -13 11 -39 24 -57 30
-18 6 -45 20 -59 32 -14 11 -33 20 -43 20 -10 0 -28 8 -41 19 -13 10 -35 22
-49 26 -14 4 -36 16 -49 26 -13 11 -30 19 -37 19 -7 0 -21 11 -30 25 -12 18
-25 25 -50 25 -25 0 -38 7 -50 25 -9 14 -24 25 -34 25 -10 0 -25 6 -32 14 -8
7 -28 21 -46 30 -18 9 -32 21 -32 26 0 5 -15 17 -32 25 -69 33 -95 52 -139 98
-25 26 -52 47 -61 47 -8 0 -23 9 -33 20 -10 11 -23 20 -29 20 -6 0 -36 25 -66
55 -29 30 -58 55 -62 55 -4 0 -8 4 -8 9 0 14 -58 69 -80 76 -24 8 -250 234
-250 251 0 7 -28 39 -61 71 -103 97 -178 189 -179 218 0 6 -19 29 -43 51 -44
42 -75 85 -101 142 -8 17 -20 32 -26 32 -6 0 -18 15 -26 33 -32 67 -53 99 -73
114 -12 8 -21 22 -21 32 0 10 -9 26 -19 35 -11 10 -22 29 -26 43 -3 15 -15 38
-26 51 -10 14 -19 31 -19 39 0 8 -11 31 -25 51 -14 20 -25 43 -25 50 0 7 -11
30 -25 50 -14 20 -25 44 -25 53 0 9 -9 28 -21 43 -12 15 -23 45 -26 67 -4 25
-13 44 -24 50 -13 7 -19 21 -19 45 0 36 -13 68 -37 92 -7 7 -13 32 -13 55 0
27 -7 48 -21 63 -12 13 -23 43 -28 75 -4 30 -17 70 -29 89 -16 26 -22 51 -22
96 0 48 -4 65 -20 79 -17 16 -20 31 -20 108 0 82 -2 91 -24 108 -23 18 -25 25
-28 153 -3 117 -6 137 -23 156 -19 21 -20 38 -23 444 -3 426 -2 450 34 533 9
20 14 70 14 140 0 99 2 111 23 133 19 21 23 38 26 115 2 72 7 92 21 102 13 9
19 30 22 78 3 46 10 73 26 94 16 23 22 44 22 85 0 48 3 58 25 72 20 13 25 25
25 58 0 29 8 53 25 76 15 21 25 47 25 69 0 20 9 47 20 61 11 14 20 40 20 58 0
22 8 41 25 56 16 15 25 34 25 53 0 22 7 36 25 47 18 12 25 25 25 50 0 25 7 38
25 50 17 11 25 26 25 46 0 19 7 34 20 42 13 9 20 24 20 45 0 21 8 38 23 50 21
18 31 33 77 116 11 20 25 37 30 37 5 0 17 15 25 33 33 67 51 97 68 109 20 15
38 44 63 101 10 20 21 37 25 37 11 0 129 122 129 132 0 48 508 555 586 585 9
3 33 23 53 45 35 36 123 98 140 98 4 0 17 11 29 25 12 14 28 25 35 25 8 0 22
9 32 20 10 11 24 20 32 20 8 0 24 11 36 24 12 13 49 37 81 55 33 17 66 40 73
51 8 12 26 20 42 20 16 0 37 10 51 25 14 15 35 25 51 25 18 0 32 7 39 20 6 11
16 20 23 20 7 0 28 11 46 24 18 13 48 27 67 30 19 4 34 10 34 15 0 12 47 31
77 31 15 0 33 10 45 25 13 16 29 25 49 25 18 0 33 7 41 20 10 16 24 20 70 20
50 0 60 3 74 25 14 21 24 25 68 25 43 0 56 4 74 25 19 21 30 25 81 25 40 0 65
5 75 15 23 24 63 35 121 35 41 0 63 6 91 25 32 21 48 25 118 25 54 1 99 7 136
20 49 17 84 19 305 20 194 0 256 3 275 14 33 19 52 19 86 1z"/>
<path d="M47255 19798 c-3 -7 -4 -377 -3 -823 l3 -810 820 0 820 0 3 814 c2
645 0 816 -10 823 -7 4 -377 8 -821 8 -637 0 -809 -3 -812 -12z"/>
<path d="M47255 16988 c-3 -7 -4 -389 -3 -848 l3 -835 809 -3 c589 -1 812 1
822 9 12 10 14 154 14 844 0 750 -2 833 -16 839 -9 3 -378 6 -820 6 -635 0
-806 -3 -809 -12z"/>
<path d="M33230 20025 l0 -115 135 0 135 0 0 115 0 115 -135 0 -135 0 0 -115z"/>
<path d="M32590 20099 c-74 -12 -174 -63 -222 -111 -98 -98 -115 -261 -38
-367 40 -54 143 -103 305 -144 189 -49 230 -76 206 -139 -32 -85 -256 -89
-429 -8 -36 17 -66 29 -68 27 -9 -9 -74 -160 -74 -172 0 -18 74 -56 165 -85
88 -28 271 -38 371 -21 190 34 297 144 297 307 0 164 -97 243 -382 310 -122
28 -168 52 -177 90 -32 126 229 157 411 49 l39 -24 39 90 c43 101 42 106 -24
139 -101 52 -300 80 -419 59z"/>
<path d="M35837 20093 c-4 -3 -7 -233 -7 -510 l0 -503 130 0 130 0 0 510 0
510 -123 0 c-68 0 -127 -3 -130 -7z"/>
<path d="M34047 19799 c-51 -8 -85 -25 -129 -67 l-28 -26 0 42 0 42 -125 0
-125 0 0 -355 0 -355 130 0 130 0 0 215 c0 232 6 267 51 299 27 18 71 21 99 6
32 -17 40 -76 40 -302 l0 -218 124 0 124 0 4 223 c3 184 6 227 20 253 31 56
102 71 143 29 l25 -24 0 -241 0 -240 130 0 130 0 0 239 c0 264 -7 325 -48 390
-74 121 -290 128 -395 12 l-33 -37 -27 38 c-46 65 -136 94 -240 77z"/>
<path d="M35349 19800 c-57 -10 -85 -23 -126 -63 l-33 -31 0 42 0 43 -127 -3
-128 -3 0 -480 0 -480 128 -3 127 -3 0 171 0 170 44 -33 c56 -44 120 -61 200
-55 73 6 152 44 193 93 69 80 102 216 84 337 -32 210 -178 330 -362 298z m56
-212 c38 -30 55 -76 55 -154 0 -109 -48 -174 -128 -174 -92 0 -141 61 -142
178 0 116 43 172 135 172 39 0 60 -6 80 -22z"/>
<path d="M36517 19799 c-121 -18 -213 -80 -268 -181 -33 -61 -34 -66 -34 -178
0 -106 2 -120 28 -172 35 -71 109 -139 185 -170 48 -19 76 -23 172 -23 108 0
119 2 182 32 113 53 178 138 200 263 13 75 -1 180 -33 242 -52 101 -155 170
-282 189 -70 10 -70 10 -150 -2z m159 -204 c35 -23 54 -76 54 -154 0 -87 -18
-134 -62 -161 -62 -38 -153 -18 -185 42 -27 50 -26 196 3 235 44 60 130 77
190 38z"/>
<path d="M37525 19800 c-64 -13 -91 -27 -134 -66 l-41 -36 0 46 0 46 -125 0
-125 0 0 -355 0 -355 130 0 130 0 0 216 c0 243 6 270 65 298 57 27 109 18 130
-25 12 -22 15 -76 15 -259 l0 -230 130 0 130 0 0 243 c0 270 -10 335 -58 397
-51 64 -157 98 -247 80z"/>
<path d="M38670 19803 c-94 -11 -182 -54 -242 -121 -75 -83 -106 -190 -88
-311 22 -153 116 -255 269 -291 112 -26 304 4 372 59 l22 18 -28 79 c-16 43
-30 81 -31 83 -2 1 -29 -10 -61 -25 -75 -37 -175 -41 -220 -8 -42 31 -63 80
-63 149 1 177 130 224 336 123 7 -3 64 139 64 159 0 15 -80 57 -135 71 -50 13
-149 20 -195 15z"/>
<path d="M39366 19799 c-213 -32 -340 -209 -306 -425 20 -124 91 -218 205
-271 55 -26 70 -28 180 -28 111 0 125 2 183 29 79 37 152 114 181 191 26 68
28 197 6 273 -49 164 -239 262 -449 231z m155 -202 c56 -35 78 -179 40 -264
-33 -72 -124 -96 -192 -50 -41 28 -58 71 -58 154 -1 99 31 159 94 176 28 8 92
-1 116 -16z"/>
<path d="M33240 19435 l0 -355 125 0 125 0 0 355 0 355 -125 0 -125 0 0 -355z"/>
<path d="M37960 19210 l0 -130 135 0 135 0 0 130 0 130 -135 0 -135 0 0 -130z"/>
<path d="M9945 18726 c-543 -90 -912 -431 -1030 -953 -68 -300 -55 -635 37
-923 138 -431 474 -722 945 -817 138 -28 502 -25 640 5 449 97 767 371 913
786 77 220 107 502 79 754 -66 600 -403 996 -959 1129 -92 22 -133 26 -325 29
-151 2 -245 -1 -300 -10z m474 -549 c210 -74 352 -252 406 -512 9 -44 19 -146
22 -226 22 -586 -229 -920 -672 -895 -365 20 -571 260 -604 705 -19 247 16
487 94 642 48 94 164 213 249 254 100 49 186 65 316 61 92 -3 130 -8 189 -29z"/>
<path d="M16140 18725 c-751 -127 -1156 -744 -1049 -1600 36 -283 150 -536
327 -725 245 -262 566 -389 982 -390 160 0 281 13 407 45 523 133 852 528 923
1111 17 138 7 427 -19 554 -116 563 -478 915 -1036 1005 -111 18 -428 18 -535
0z m413 -530 c186 -39 329 -157 411 -338 70 -153 91 -290 83 -536 -6 -182 -18
-259 -60 -374 -111 -305 -377 -452 -712 -392 -182 32 -325 142 -408 315 -80
166 -102 298 -94 564 6 208 29 320 92 453 74 152 226 271 396 307 84 19 208
19 292 1z"/>
<path d="M20260 18724 c-505 -79 -880 -400 -1024 -877 -94 -307 -83 -721 24
-1016 135 -370 394 -622 763 -746 173 -58 263 -70 512 -70 189 1 235 4 322 23
205 45 422 135 533 223 l48 38 -104 236 c-57 130 -106 240 -109 245 -3 5 -37
-11 -76 -36 -370 -240 -830 -246 -1060 -15 -153 154 -216 368 -206 696 9 294
65 454 208 598 111 111 266 167 464 167 190 0 424 -73 602 -189 34 -22 65 -36
68 -31 3 5 52 115 109 245 l104 236 -66 49 c-121 89 -286 158 -492 207 -90 22
-134 25 -315 29 -152 2 -236 -1 -305 -12z"/>
<path d="M22865 18733 c-517 -67 -891 -361 -1045 -821 -51 -154 -71 -271 -77
-466 -13 -401 74 -713 274 -973 177 -232 449 -387 781 -444 129 -22 353 -26
492 -9 285 36 540 152 727 333 209 202 324 443 374 782 15 106 15 389 0 495
-47 323 -184 601 -386 787 -175 161 -427 275 -690 313 -66 9 -385 12 -450 3z
m350 -538 c231 -49 399 -222 465 -480 11 -44 26 -140 32 -212 29 -322 -44
-616 -190 -774 -111 -121 -230 -176 -402 -185 -385 -22 -632 216 -679 654 -36
338 24 635 165 806 137 166 375 240 609 191z"/>
<path d="M33607 18720 c-412 -75 -707 -306 -799 -625 -30 -105 -32 -314 -5
-415 28 -102 71 -185 129 -246 150 -159 375 -259 807 -359 383 -89 490 -141
521 -255 12 -46 0 -111 -28 -149 -29 -40 -115 -87 -195 -107 -89 -23 -352 -26
-467 -5 -209 37 -348 83 -515 170 l-111 58 -104 -239 c-58 -132 -106 -243
-108 -247 -3 -10 140 -94 218 -126 262 -110 541 -165 843 -165 311 0 523 41
723 141 211 106 346 263 405 474 30 104 33 306 6 405 -41 155 -132 276 -281
374 -148 98 -332 166 -652 240 -399 93 -511 149 -530 263 -16 104 45 196 170
254 218 101 617 40 922 -141 l98 -58 98 226 c54 125 101 236 104 248 7 28 -50
70 -181 134 -124 60 -248 101 -407 136 -107 23 -151 27 -338 30 -181 3 -232 1
-323 -16z"/>
<path d="M38465 18733 c-277 -34 -528 -146 -681 -305 -102 -105 -154 -188
-193 -308 -55 -166 -41 -420 31 -565 58 -117 184 -228 342 -305 106 -51 314
-119 491 -160 377 -88 505 -138 557 -219 32 -52 38 -123 13 -170 -78 -153
-409 -202 -794 -119 -153 32 -352 111 -478 189 l-32 20 -14 -33 c-8 -18 -56
-127 -106 -241 -50 -115 -91 -212 -91 -217 0 -13 134 -90 230 -131 161 -69
381 -126 584 -150 132 -15 481 -7 606 16 348 62 602 225 715 460 61 125 79
223 72 384 -11 262 -103 413 -337 552 -145 86 -315 144 -649 223 -273 65 -373
101 -437 160 -45 40 -48 46 -52 103 -6 78 9 119 60 172 132 139 447 159 769
51 94 -31 236 -100 309 -149 l45 -31 11 23 c21 39 205 470 202 471 -2 1 -21
16 -44 34 -133 102 -445 211 -694 242 -78 9 -366 12 -435 3z"/>
<path d="M3700 17375 l0 -1335 350 0 350 0 0 479 0 478 378 6 c332 5 389 9
477 27 187 40 327 111 440 224 112 113 180 242 211 406 19 96 19 304 0 400
-69 363 -333 589 -746 640 -51 6 -357 10 -772 10 l-688 0 0 -1335z m1412 767
c109 -54 158 -142 158 -287 0 -146 -48 -233 -157 -287 l-68 -33 -322 -3 -323
-3 0 326 0 326 323 -3 322 -3 67 -33z"/>
<path d="M6260 17376 l0 -1336 345 0 345 0 0 501 0 501 153 -3 c143 -4 155 -6
209 -32 32 -16 70 -44 86 -63 16 -19 134 -228 262 -465 128 -237 238 -433 244
-435 6 -2 179 -3 383 -2 l372 3 -215 385 c-259 463 -258 461 -337 537 -64 62
-122 97 -192 118 l-40 12 60 18 c388 112 610 457 566 880 -14 129 -33 203 -77
293 -103 211 -295 339 -594 398 -74 15 -185 18 -827 21 l-743 4 0 -1335z
m1351 790 c170 -36 240 -123 241 -295 1 -192 -85 -275 -310 -301 -48 -5 -203
-10 -344 -10 l-258 0 0 310 0 310 303 0 c221 0 320 -4 368 -14z"/>
<path d="M11960 17375 l0 -1335 305 0 305 0 2 685 3 685 254 -465 254 -465
222 0 222 0 254 474 254 473 3 -693 2 -694 305 0 305 0 0 1335 0 1335 -271 -2
-270 -3 -394 -750 c-217 -412 -398 -751 -402 -752 -4 -1 -186 336 -404 750
l-397 752 -276 3 -276 2 0 -1335z"/>
<path d="M24820 17376 l0 -1336 594 0 c327 0 640 5 697 10 539 53 921 301
1101 714 139 316 156 766 42 1105 -133 398 -433 671 -858 781 -203 52 -218 53
-918 57 l-658 4 0 -1335z m1275 750 c312 -71 466 -229 526 -538 18 -90 15
-356 -4 -444 -70 -317 -252 -484 -577 -530 -55 -8 -184 -14 -307 -14 l-213 0
0 776 0 776 253 -5 c178 -4 273 -10 322 -21z"/>
<path d="M27750 17375 l0 -1335 945 0 945 0 0 270 0 270 -610 0 -610 0 0 275
0 275 575 0 575 0 -2 268 -3 267 -572 3 -573 2 0 250 0 250 610 0 610 0 0 270
0 270 -945 0 -945 0 0 -1335z"/>
<path d="M29993 17838 c4 -930 4 -922 55 -1110 46 -165 143 -330 260 -439 151
-142 345 -227 602 -266 150 -22 488 -13 615 16 444 103 699 346 793 756 38
163 42 270 42 1106 l0 809 -345 0 -344 0 -3 -877 -3 -878 -28 -82 c-53 -156
-159 -269 -290 -308 -133 -40 -299 -28 -417 31 -84 42 -140 102 -186 199 -69
142 -67 118 -71 1063 l-4 852 -340 0 -340 0 4 -872z"/>
<path d="M35340 17375 l0 -1335 950 0 950 0 0 270 0 270 -610 0 -610 0 0 275
0 275 570 0 570 0 0 270 0 270 -570 0 -570 0 0 250 0 250 610 0 610 0 0 270 0
270 -950 0 -950 0 0 -1335z"/>
<path d="M3775 15553 c-96 -13 -265 -79 -265 -104 0 -8 69 -171 76 -178 2 -2
25 7 51 21 95 52 234 74 285 47 28 -15 49 -71 42 -111 -12 -62 -54 -117 -239
-310 l-185 -193 0 -97 0 -98 360 0 360 0 0 105 0 105 -196 0 -196 0 125 129
c138 142 180 199 209 275 25 65 27 176 4 231 -55 131 -234 205 -431 178z"/>
<path d="M4694 15548 c-157 -17 -269 -136 -309 -325 -19 -88 -19 -270 0 -367
28 -149 104 -259 213 -309 39 -18 65 -22 157 -22 92 0 118 4 157 22 149 69
228 237 228 488 0 185 -41 323 -121 410 -78 85 -187 119 -325 103z m127 -219
c43 -43 52 -85 57 -259 3 -131 1 -180 -12 -230 -20 -81 -57 -120 -114 -120
-76 0 -111 62 -121 215 -14 201 12 365 62 400 32 23 103 19 128 -6z"/>
<path d="M5505 15553 c-96 -13 -265 -79 -265 -104 0 -8 69 -171 76 -178 2 -2
25 7 51 21 95 52 234 74 285 47 28 -15 49 -71 42 -111 -12 -62 -54 -117 -239
-310 l-185 -193 0 -97 0 -98 360 0 360 0 0 105 0 105 -196 0 -196 0 125 129
c138 142 180 199 209 275 25 65 27 176 4 231 -55 131 -234 205 -431 178z"/>
<path d="M6422 15548 c-159 -18 -269 -132 -308 -321 -21 -99 -20 -292 2 -387
46 -205 159 -309 346 -318 201 -10 331 92 385 302 24 96 25 333 0 423 -60 224
-204 326 -425 301z m131 -228 c45 -53 52 -92 52 -280 0 -195 -10 -246 -55
-292 -30 -30 -83 -38 -121 -18 -53 29 -86 195 -75 377 12 182 44 243 131 243
36 0 48 -5 68 -30z"/>
</g>
</svg>
